<svg width="101" height="67" viewBox="0 0 101 67" fill="none" xmlns="http://www.w3.org/2000/svg">
<path d="M86.2643 64.016C85.5434 64.0163 84.846 63.7594 84.2975 63.2915C83.749 62.8236 83.3854 62.1754 83.2721 61.4635C83.1588 60.7515 83.3032 60.0224 83.6793 59.4074C84.0555 58.7924 84.6387 58.3317 85.3241 58.1082C91.0854 56.2226 94.8073 51.173 94.8073 45.2429C94.8073 37.7328 88.6979 31.6226 81.1881 31.6226C80.6663 31.6226 80.1049 31.6636 79.4217 31.7523L76.4608 32.1363L76.0354 29.1792C74.2155 16.5011 63.1713 6.94019 50.3452 6.94019C39.7416 6.94019 30.3018 13.2878 26.2987 23.1128L25.5448 24.9613L23.5502 24.9976C14.3827 25.166 6.92446 32.7585 6.92446 41.9214C6.92446 48.6105 10.8081 54.7105 16.8178 57.4613C17.5482 57.7955 18.1159 58.4063 18.396 59.1591C18.6761 59.9119 18.6456 60.7452 18.3114 61.4755C17.9771 62.2059 17.3664 62.7736 16.6136 63.0537C15.8608 63.3338 15.0275 63.3034 14.2971 62.9691C6.13735 59.2351 0.865479 50.9734 0.865479 41.9218C0.865479 30.1425 9.94126 20.2753 21.469 19.0632C26.7807 7.95659 37.9131 0.883545 50.344 0.883545C65.2229 0.883545 78.1569 11.3152 81.5108 25.5691C92.2123 25.7425 100.865 34.5015 100.865 45.2437C100.865 53.7085 95.3764 61.1914 87.2081 63.8648C86.8956 63.9667 86.5772 64.016 86.2643 64.016Z" fill="#0071CE"/>
<path d="M39.9347 65.3262L39.9331 65.3254L39.9304 65.3246H39.9296L39.9288 65.3239L39.928 65.3231C39.928 65.3231 39.9273 65.3231 39.9273 65.3223H39.9265L39.9257 65.3215C39.9265 65.3207 39.9249 65.3207 39.9249 65.3207L39.9241 65.32H39.9234L39.9226 65.3192L39.9218 65.3184L39.9195 65.3176L39.9187 65.3168L39.9179 65.3161L39.9171 65.3153L39.9148 65.3145C39.914 65.3153 39.914 65.3137 39.9132 65.3137L39.9124 65.3129L39.9109 65.3121L39.9101 65.3114C39.9093 65.3106 39.9077 65.3106 39.907 65.3106L39.9038 65.3098L39.9023 65.309H39.9015C39.9007 65.3082 39.8999 65.3082 39.8988 65.3082C39.898 65.3075 39.8964 65.3075 39.8964 65.3075H39.8956L39.8941 65.3067C39.8933 65.3067 39.8933 65.3059 39.8933 65.3059H39.8925C39.8447 65.2888 39.7947 65.279 39.7441 65.2766H39.7394H39.737L39.7363 65.2758H39.728H39.7288H39.7226C38.4136 65.2758 37.3425 64.2102 37.3347 62.9043V36.2911H39.3741C39.6847 36.3044 39.8964 36.0653 39.8964 35.7786C39.8964 35.5641 39.7652 35.3809 39.5788 35.3044L29.7929 28.5501C29.7072 28.4911 29.6057 28.4595 29.5017 28.4595C29.3977 28.4595 29.2961 28.4911 29.2105 28.5501L19.348 35.3571C19.2585 35.4195 19.1912 35.5087 19.1559 35.6118C19.1205 35.715 19.119 35.8267 19.1514 35.9308C19.1838 36.0349 19.2486 36.126 19.3362 36.1909C19.4239 36.2557 19.5299 36.291 19.639 36.2915H21.678L21.68 62.9114C21.6902 64.7516 23.1683 66.2536 25.0491 66.3012C25.0706 66.3036 25.0909 66.3051 25.1124 66.3051H39.7304C39.8648 66.3028 39.9866 66.2489 40.0769 66.1625L40.0777 66.1618L40.0816 66.1579C40.0823 66.1571 40.0831 66.1571 40.0839 66.1555L40.0847 66.1547L40.0855 66.1539L40.0863 66.1532L40.087 66.1524L40.0878 66.1516L40.0886 66.1508C40.0902 66.15 40.0894 66.15 40.0902 66.1493L40.0909 66.1485L40.0917 66.1477L40.0925 66.1469C40.1812 66.0551 40.2366 65.9309 40.237 65.7934V65.7856C40.235 65.6883 40.2055 65.5936 40.152 65.5123C40.0986 65.4311 40.0232 65.3666 39.9347 65.3262Z" fill="#DC8327"/>
<path d="M61.0706 65.3262L61.069 65.3254L61.0667 65.3246H61.0655L61.0647 65.3238L61.0639 65.323H61.0631L61.0624 65.3223L61.0616 65.3215C61.0624 65.3207 61.0608 65.3207 61.06 65.3207L61.0592 65.3199H61.0585C61.0577 65.3199 61.0577 65.3191 61.0577 65.3191C61.0561 65.3199 61.0561 65.3184 61.0561 65.3184L61.0546 65.3176L61.0538 65.3168H61.053L61.0522 65.316L61.0514 65.3152L61.0499 65.3144C61.0491 65.3152 61.0491 65.3137 61.0475 65.3137L61.0467 65.3129L61.046 65.3121L61.0444 65.3113C61.0436 65.3105 61.0421 65.3105 61.0413 65.3105L61.0382 65.3098L61.0366 65.309L61.035 65.3082L61.0335 65.3074L61.0315 65.3066C61.0292 65.3066 61.0307 65.3066 61.0299 65.3059L61.0284 65.3051L61.0276 65.3043H61.0268C60.9791 65.2872 60.929 65.2774 60.8784 65.275H60.8721L60.8714 65.2742H60.8553C59.5467 65.2742 58.476 64.2086 58.4682 62.9027V42.2503H60.5069C60.6278 42.256 60.7467 42.2186 60.8427 42.1449C60.9386 42.0712 61.0054 41.966 61.0311 41.8477C61.0569 41.7295 61.0399 41.606 60.9833 41.4991C60.9267 41.3921 60.834 41.3087 60.7217 41.2636L50.9354 34.5097C50.8497 34.4506 50.7481 34.4189 50.644 34.4189C50.5399 34.4189 50.4383 34.4506 50.3526 34.5097L40.494 41.316C40.4045 41.3783 40.3372 41.4675 40.3019 41.5707C40.2665 41.6738 40.265 41.7856 40.2974 41.8897C40.3298 41.9938 40.3946 42.0849 40.4822 42.1497C40.5699 42.2146 40.6759 42.2498 40.785 42.2503H42.8151L42.8166 62.9105C42.8252 64.7516 44.3061 66.2543 46.1877 66.3012C46.208 66.3035 46.2284 66.3043 46.2491 66.3043H60.8674C61.0018 66.302 61.1233 66.248 61.2135 66.1617L61.2143 66.1609C61.2159 66.1594 61.219 66.1578 61.2182 66.157C61.219 66.1563 61.2198 66.1562 61.2206 66.1547L61.2214 66.1539L61.2221 66.1531L61.2229 66.1523C61.2229 66.1523 61.2237 66.1523 61.2237 66.1516L61.2245 66.1508C61.2253 66.1508 61.2253 66.15 61.2253 66.15C61.2276 66.1492 61.2268 66.1492 61.2268 66.1484L61.2276 66.1477L61.2284 66.1469L61.2292 66.1461C61.3178 66.0543 61.3733 65.9301 61.3737 65.7926V65.7848C61.3712 65.6876 61.3415 65.5931 61.2879 65.512C61.2343 65.4309 61.159 65.3665 61.0706 65.3262Z" fill="#F4B21B"/>
<path d="M82.2616 65.3261L82.2601 65.3253L82.2577 65.3245H82.257L82.2562 65.3237L82.2554 65.323C82.2546 65.323 82.2546 65.323 82.2546 65.3222H82.2538L82.2531 65.3214L82.2523 65.3206C82.2523 65.3206 82.2515 65.3206 82.2515 65.3198H82.2507L82.2499 65.3191C82.2491 65.3198 82.2491 65.3183 82.2484 65.3183C82.2491 65.3175 82.2476 65.3175 82.2468 65.3175L82.246 65.3167H82.2452L82.2445 65.3159L82.2437 65.3152L82.2421 65.3144C82.2413 65.3152 82.2413 65.3136 82.2398 65.3136L82.239 65.3128C82.2398 65.312 82.2382 65.312 82.2374 65.312C82.2374 65.312 82.2366 65.312 82.2366 65.3112C82.2359 65.3105 82.2343 65.3105 82.2335 65.3105L82.23 65.3097L82.2284 65.3089L82.2269 65.3081L82.2253 65.3073L82.2238 65.3066C82.2214 65.3066 82.2214 65.3066 82.2222 65.3058C82.2214 65.3058 82.2214 65.305 82.2214 65.305L82.2199 65.3042H82.2191C82.1713 65.2872 82.1213 65.2773 82.0706 65.2749H82.0632L82.0616 65.2741H82.0531H82.0476H82.0507H82.0499C80.7413 65.2741 79.6706 64.2085 79.6624 62.9026V48.2073H81.707C81.9952 48.2007 82.2292 47.9823 82.2292 47.6956C82.2292 47.4808 82.098 47.2975 81.9116 47.221L72.1249 40.4671C72.0393 40.4081 71.9377 40.3765 71.8337 40.3765C71.7297 40.3765 71.6282 40.4081 71.5425 40.4671L61.68 47.2733C61.5905 47.3357 61.5233 47.4249 61.4879 47.5281C61.4526 47.6312 61.451 47.743 61.4834 47.8471C61.5159 47.9512 61.5806 48.0423 61.6683 48.1071C61.7559 48.1719 61.862 48.2072 61.971 48.2077H64.005L64.0066 62.9105C64.0167 64.7515 65.4964 66.255 67.3773 66.3011C67.3976 66.3034 67.4183 66.3042 67.439 66.3042H82.057C82.1913 66.3019 82.3132 66.248 82.4034 66.1616L82.4042 66.1609C82.4058 66.1593 82.4081 66.1577 82.4081 66.157C82.4089 66.1562 82.4097 66.1562 82.4105 66.1546L82.4113 66.1538L82.412 66.153L82.4128 66.1523L82.4136 66.1515L82.4144 66.1507L82.4152 66.1499C82.4175 66.1491 82.4159 66.1491 82.4167 66.1484L82.4175 66.1476L82.4183 66.1468L82.4191 66.146C82.5077 66.0542 82.5628 65.93 82.5636 65.7925V65.7847C82.5616 65.6876 82.5322 65.593 82.4787 65.5119C82.4253 65.4307 82.3501 65.3663 82.2616 65.3261Z" fill="#F2D864"/>
</svg>
