<svg width="71" height="98" viewBox="0 0 71 98" fill="none" xmlns="http://www.w3.org/2000/svg">
<path d="M45.6609 0L56.944 6.50372L12.5099 32.1164L1.22695 25.6125L45.6609 0ZM57.3989 7.86925L13.2447 33.309L13.2432 46.1803L57.3975 20.7405L57.3989 7.86925ZM39.6431 32.9883L13.3375 48.1447L13.3361 61.0163L39.6416 45.8598L39.6431 32.9883ZM29.559 53.3366L13.2752 62.7191L13.2737 75.5909L29.5576 66.2084L29.559 53.3366ZM0.425151 26.8535L11.7745 33.3923L11.7701 46.2666L0.420776 39.7279L0.425151 26.8535ZM0.533144 41.6003L11.7448 48.0598L11.7404 60.9341L0.52877 54.4747L0.533144 41.6003ZM0.528204 56.2583L11.7437 62.72L11.739 76.4435L0.523542 69.9818L0.528204 56.2583ZM25.5201 98L14.2371 91.4963L58.1668 66.1744L69.4497 72.6781L25.5201 98ZM13.3426 90.3832L57.4306 64.9816L57.432 52.1103L13.344 77.5119L13.3426 90.3832ZM31.0321 65.3024L57.3376 50.1459L57.3391 37.2744L31.0335 52.4308L31.0321 65.3024ZM41.1162 44.954L57.4 35.5716L57.4014 22.6998L41.1176 32.0823L41.1162 44.954ZM70.2515 71.5234L58.9022 64.9847L58.9066 52.1103L70.2559 58.649L70.2515 71.5234ZM70.1443 56.6938L58.9326 50.2343L58.9369 37.36L70.1486 43.8194L70.1443 56.6938ZM70.1485 42.0358L58.933 35.5741L58.9375 22.0973L70.153 28.5588L70.1485 42.0358Z" fill="#172B4D"/>
</svg>
