<svg width="95" height="99" viewBox="0 0 95 99" fill="none" xmlns="http://www.w3.org/2000/svg">
<path d="M93.534 33.711C96.3556 24.8318 94.6571 7.11343 89.1872 0.576178C89.019 0.378841 88.8065 0.224194 88.5669 0.124931C88.3274 0.0256682 88.0678 -0.015382 87.8093 0.00514977C87.5509 0.0256815 87.301 0.10721 87.0801 0.243044C86.8593 0.378878 86.6738 0.565145 86.5389 0.786558L79.8005 11.4695C79.0038 12.4999 77.8462 13.1902 76.561 13.4015C75.2757 13.6127 73.9581 13.3292 72.8735 12.6081C65.3334 7.61312 56.4867 4.95482 47.4422 4.96631C38.3957 4.9536 29.5467 7.61196 22.0048 12.6081C20.9193 13.3247 19.6034 13.6055 18.3199 13.3945C17.0364 13.1834 15.8797 12.496 15.0808 11.4695L8.33939 0.786558C8.20375 0.566612 8.01823 0.381692 7.79785 0.246766C7.57747 0.111841 7.32841 0.0307009 7.07084 0.00991465C6.81327 -0.0108716 6.55443 0.0292798 6.31526 0.127119C6.07609 0.224958 5.86332 0.377735 5.69417 0.573084C0.218101 7.1258 -1.47731 24.841 1.34735 33.7079C2.28478 36.6625 2.53847 39.7811 1.98777 42.8131C1.43707 45.8203 0.883273 49.4524 0.883273 51.9832C0.883273 77.9527 21.7295 99 47.4299 99C73.1395 99 93.9733 77.9434 93.9733 51.9832C93.9733 49.4524 93.4226 45.8203 92.8719 42.8131C92.3516 39.7702 92.5788 36.6465 93.534 33.711ZM47.4299 88.5027C27.5551 88.5027 11.3961 72.1704 11.3961 52.0945C11.3845 45.2247 13.3159 38.4916 16.9672 32.6724C20.6186 26.8533 25.8411 22.1852 32.0319 19.2072C36.8378 16.8927 42.105 15.6954 47.4391 15.705C52.9554 15.705 58.1747 16.9518 62.8464 19.2134C69.0371 22.1927 74.2595 26.8614 77.9113 32.6808C81.563 38.5003 83.4953 45.2335 83.4853 52.1038C83.4729 72.1704 67.3046 88.5027 47.4299 88.5027Z" fill="#3970FD"/>
<path d="M63.0449 66.1133L53.8345 49.9728L45.9391 36.527C45.8481 36.37 45.7171 36.2397 45.5596 36.1496C45.402 36.0594 45.2234 36.0124 45.0419 36.0134H37.4991C37.3147 36.0142 37.1338 36.0637 36.9747 36.1569C36.8156 36.2502 36.6839 36.3838 36.5932 36.5444C36.5024 36.7049 36.4557 36.8866 36.4577 37.071C36.4598 37.2554 36.5106 37.436 36.605 37.5944L44.1632 50.4214L34.0248 66.0421C33.9238 66.2003 33.8666 66.3824 33.859 66.5699C33.8514 66.7574 33.8937 66.9436 33.9815 67.1095C34.0699 67.2754 34.2018 67.4141 34.3632 67.5106C34.5246 67.6071 34.7092 67.6578 34.8972 67.6571H42.4957C42.6699 67.658 42.8414 67.6144 42.9941 67.5305C43.1468 67.4466 43.2755 67.3251 43.3681 67.1775L48.8504 58.5303L53.7696 67.1435C53.9552 67.4653 54.2955 67.6694 54.6606 67.6694H62.1507C62.3334 67.6707 62.5129 67.6224 62.6703 67.5298C62.8278 67.4372 62.9572 67.3037 63.0449 67.1435C63.2305 66.8341 63.2305 66.4319 63.0449 66.1071V66.1133Z" fill="#3970FD"/>
</svg>
