<svg width="98" height="98" viewBox="0 0 98 98" fill="none" xmlns="http://www.w3.org/2000/svg">
<path d="M15.7319 65.4144H32.2925V81.975C32.2925 86.5482 35.9995 90.2552 40.5727 90.2552H81.9741C86.547 90.2552 90.2543 86.5482 90.2543 81.975V40.5736C90.2543 36.0007 86.547 32.2934 81.9741 32.2934H65.4135V15.7329C65.4135 11.1598 61.7062 7.45264 57.1334 7.45264H15.7319C11.1589 7.45264 7.45166 11.1598 7.45166 15.7329V57.1342C7.45166 61.7074 11.1589 65.4144 15.7319 65.4144Z" fill="black"/>
<path fill-rule="evenodd" clip-rule="evenodd" d="M24.8408 72.8662H15.7325C7.04367 72.8662 0 65.8228 0 57.1338V15.7325C0 7.04368 7.04367 0 15.7325 0H57.1337C65.8227 0 72.8665 7.04368 72.8665 15.7325V24.8408H81.9745C90.6635 24.8408 97.7073 31.8845 97.7073 40.5732V81.9746C97.7073 90.6636 90.6635 97.707 81.9745 97.707H40.5735C31.8845 97.707 24.8408 90.6636 24.8408 81.9746V72.8662ZM15.7325 65.414C11.1594 65.414 7.45223 61.707 7.45223 57.1338V15.7325C7.45223 11.1594 11.1594 7.45224 15.7325 7.45224H57.1337C61.7069 7.45224 65.4143 11.1594 65.4143 15.7325V32.293H81.9745C86.5477 32.293 90.255 36.0003 90.255 40.5732V81.9746C90.255 86.5478 86.5477 90.2548 81.9745 90.2548H40.5735C36.0003 90.2548 32.293 86.5478 32.293 81.9746V65.414H15.7325Z" fill="url(#paint0_linear_915_26)"/>
<path d="M15.7317 15.7317H57.133V57.1331H15.7317V15.7317Z" fill="white"/>
<defs>
<linearGradient id="paint0_linear_915_26" x1="6.86372" y1="9.16005" x2="103.108" y2="23.6791" gradientUnits="userSpaceOnUse">
<stop stop-color="#FF7448"/>
<stop offset="0.510417" stop-color="#FF4848"/>
<stop offset="1" stop-color="#6248FF"/>
</linearGradient>
</defs>
</svg>
