<?xml version="1.0" standalone="no"?>
<!DOCTYPE svg PUBLIC "-//W3C//DTD SVG 20010904//EN"
 "http://www.w3.org/TR/2001/REC-SVG-20010904/DTD/svg10.dtd">
<svg version="1.0" xmlns="http://www.w3.org/2000/svg"
 width="250.000000pt" height="250.000000pt" viewBox="0 0 250.000000 250.000000"
 preserveAspectRatio="xMidYMid meet">
<metadata>
Created by potrace 1.14, written by Peter Selinger 2001-2017
</metadata>
<g transform="translate(0.000000,250.000000) scale(0.100000,-0.100000)"
fill="#000000" stroke="none">
<path d="M1267 1722 l-38 -3 6 -42 c3 -23 8 -54 11 -69 10 -50 -20 -31 -51 33
-16 33 -32 62 -36 64 -12 8 -129 -19 -129 -29 0 -6 12 -31 25 -55 14 -24 23
-46 21 -48 -4 -5 -53 35 -87 71 -19 20 -20 19 -91 -10 -40 -17 -73 -36 -73
-42 0 -6 33 -27 73 -46 39 -20 72 -37 72 -39 0 -3 -31 3 -69 13 -38 10 -88 21
-112 25 -43 6 -46 5 -104 -48 -33 -30 -57 -58 -53 -62 5 -6 106 -13 202 -15
41 0 29 -8 -24 -15 -175 -23 -205 -28 -221 -36 -9 -5 -26 -32 -38 -61 -16 -38
-37 -65 -75 -96 -29 -24 -63 -53 -77 -65 -13 -12 -103 -89 -199 -171 -96 -82
-179 -153 -185 -158 -11 -10 7 -8 108 16 37 9 79 18 95 21 15 2 77 16 139 30
152 34 151 34 151 -17 1 -102 0 -98 25 -89 26 10 148 41 175 45 14 2 18 18 22
97 5 87 20 139 42 139 5 0 8 4 8 10 0 12 131 190 140 190 4 0 25 -21 46 -46
21 -26 44 -52 49 -58 6 -6 28 -32 50 -58 l41 -46 -1 -136 c0 -75 3 -136 8
-136 5 0 43 9 85 19 43 10 89 21 103 25 25 5 25 7 26 94 l0 89 89 126 c49 69
94 126 99 126 6 0 29 -23 53 -52 23 -29 62 -74 87 -102 l44 -50 1 -132 c0 -72
4 -134 8 -137 4 -2 53 7 108 20 l100 25 -1 87 0 87 78 110 c44 60 81 115 84
122 11 28 38 24 68 -10 16 -19 57 -65 90 -102 l60 -68 2 -134 c1 -74 3 -137 6
-139 2 -2 18 1 35 7 28 10 31 15 34 57 l3 47 58 14 c32 7 57 17 55 21 -3 8
-77 96 -131 154 -15 17 -71 84 -125 148 -53 64 -107 120 -118 125 -12 4 -37
28 -56 53 -20 25 -39 44 -44 44 -62 -11 -252 -25 -234 -18 94 37 167 68 174
74 8 8 -80 79 -99 80 -6 0 -49 -19 -95 -43 -149 -74 -152 -74 -65 7 44 41 78
76 75 79 -3 3 -34 17 -69 31 l-64 26 -28 -33 c-15 -17 -39 -45 -53 -62 l-25
-30 11 45 c23 103 27 97 -89 107 -67 5 -73 4 -74 -13 0 -11 -2 -28 -5 -39 -2
-11 -5 -32 -6 -47 -1 -15 -5 -25 -9 -23 -6 4 -24 102 -21 116 2 10 -28 14 -71
11z"/>
<path d="M805 996 c-2 -6 -3 -27 -2 -46 2 -33 4 -35 41 -38 21 -2 43 1 48 6
14 14 16 72 4 80 -19 11 -87 10 -91 -2z"/>
<path d="M935 1001 c-3 -2 -5 -22 -5 -43 0 -38 0 -38 40 -36 22 1 41 6 41 12
7 65 4 71 -34 71 -21 1 -40 -1 -42 -4z"/>
<path d="M1409 986 c-8 -79 -9 -76 37 -76 46 0 54 10 51 60 -2 21 -7 24 -44
26 -25 1 -43 -4 -44 -10z"/>
<path d="M1526 992 c-3 -6 -1 -49 3 -72 1 -4 16 -4 35 -2 32 4 34 6 32 40 -1
34 -3 37 -33 39 -18 1 -35 -2 -37 -5z"/>
<path d="M2014 966 c-10 -27 0 -61 19 -60 9 1 26 2 37 3 16 1 20 8 20 36 0 33
-2 35 -35 35 -22 0 -38 -6 -41 -14z"/>
<path d="M2112 950 c-2 -29 1 -32 33 -32 32 0 36 3 33 30 -2 22 -9 28 -33 30
-28 3 -31 0 -33 -28z"/>
<path d="M948 892 c-14 -3 -18 -13 -18 -43 0 -35 2 -39 26 -39 42 0 59 15 59
52 0 28 -3 33 -25 34 -14 0 -33 -2 -42 -4z"/>
<path d="M1543 893 c-21 -4 -21 -5 -14 -76 1 -5 11 -5 24 -1 12 4 28 7 35 7 9
0 12 12 10 36 -3 37 -12 43 -55 34z"/>
<path d="M2130 891 c-9 -3 -16 -19 -16 -37 -1 -29 0 -31 30 -25 25 6 32 12 34
37 3 31 -14 40 -48 25z"/>
<path d="M833 882 c-31 -3 -32 -4 -31 -52 l0 -50 36 7 c21 3 42 6 49 6 11 0
23 72 13 85 -6 8 -20 9 -67 4z"/>
<path d="M1445 880 c-39 -5 -40 -6 -40 -44 0 -44 6 -48 55 -38 32 7 35 11 37
45 2 43 0 45 -52 37z"/>
<path d="M2038 883 c-25 -4 -28 -8 -28 -43 0 -27 4 -38 13 -36 6 3 24 7 40 10
23 6 27 11 27 41 0 22 -5 34 -12 34 -7 -1 -25 -4 -40 -6z"/>
</g>
</svg>
