<svg width="33" height="24" viewBox="0 0 33 24" fill="none" xmlns="http://www.w3.org/2000/svg">
<path d="M31.872 7.98867C32.1119 7.79795 32.4687 7.97637 32.4687 8.27783V20.8594C32.4687 22.4897 31.146 23.8125 29.5156 23.8125H3.92187C2.2915 23.8125 0.96875 22.4897 0.96875 20.8594V8.28398C0.96875 7.97637 1.31943 7.8041 1.56553 7.99482C2.94365 9.06533 4.7709 10.425 11.0463 14.9839C12.3444 15.9313 14.5347 17.9247 16.7187 17.9124C18.9151 17.9309 21.1484 15.8944 22.3974 14.9839C28.6728 10.425 30.4938 9.05918 31.872 7.98867ZM16.7187 15.9375C18.1461 15.9621 20.201 14.141 21.2346 13.3904C29.3987 7.46572 30.0201 6.94893 31.9027 5.47236C32.2596 5.19551 32.4687 4.76484 32.4687 4.30957V3.14062C32.4687 1.51025 31.146 0.1875 29.5156 0.1875H3.92187C2.2915 0.1875 0.96875 1.51025 0.96875 3.14062V4.30957C0.96875 4.76484 1.17793 5.18936 1.53477 5.47236C3.41738 6.94277 4.03877 7.46572 12.2029 13.3904C13.2365 14.141 15.2914 15.9621 16.7187 15.9375Z" fill="black"/>
</svg>
