<svg width="202" height="199" viewBox="0 0 202 199" fill="none" xmlns="http://www.w3.org/2000/svg">
<path d="M162.203 3.5C223.178 110.5 197.119 160.991 162.203 177.137C146.727 184.294 103.602 173.457 99.8803 163.039C95.0887 149.627 118.384 147.779 124.455 166.798C128.633 188.089 107.105 207.78 53.5873 184.294C46.3913 181.136 33.8615 175.678 29.3438 171.33M8.65932 163.307C11.4121 162.293 33.1045 155.321 30.1625 155.776C26.3112 156.371 22.5966 157.409 18.4599 157.491C13.5658 157.588 9.34462 158.921 4.2255 158.476C-0.266422 158.085 20.9001 177.099 25.0503 179.848" stroke="#0E2F3E" stroke-width="6" stroke-linecap="round"/>
</svg>
