<svg width="216" height="148" viewBox="0 0 216 148" fill="none" xmlns="http://www.w3.org/2000/svg">
<path d="M202 3.5C231 76.4998 197.119 109.991 162.203 126.137C146.728 133.293 103.603 122.457 99.8805 112.039C95.0889 98.6271 118.384 96.7792 124.455 115.797C128.634 137.088 107.105 156.779 53.5875 133.293C46.3915 130.135 33.8616 124.678 29.3439 120.33M8.65942 112.307C11.4122 111.293 33.1046 104.321 30.1626 104.776C26.3113 105.371 22.5967 106.409 18.46 106.491C13.5658 106.588 9.34471 107.921 4.22559 107.475C-0.26633 107.084 20.9002 126.098 25.0504 128.848" stroke="#0E2F3E" stroke-width="6" stroke-linecap="round"/>
</svg>
